<svg fill="#000000" version="1.1" id="Capa_1" xmlns="http://www.w3.org/2000/svg" xmlns:xlink="http://www.w3.org/1999/xlink" width="79px" height="79px" viewBox="-4.11 -4.11 39.87 39.87" xml:space="preserve" stroke="#000000" stroke-width="0.379752" transform="matrix(1, 0, 0, 1, 0, 0)rotate(0)"><g id="SVGRepo_bgCarrier" stroke-width="0" transform="translate(0,0), scale(1)"><path transform="translate(-4.11, -4.11), scale(1.2459375)" d="M16,29.24789460003376C19.680653860225917,29.045005370899887,21.70228367503804,25.256686755503257,23.85729906903429,22.265986916045332C25.818145720986337,19.544751706527943,28.11934190100183,16.67376895529025,27.42510618181297,13.392294069786628C26.721774070070545,10.067822860573118,23.584974666218404,8.080981556951784,20.538034937834375,6.576673353194106C17.440909350173406,5.047587829714726,13.943905938685234,3.7732799751349604,10.788757065394195,5.178742543554629C7.545843376922017,6.623299990699525,5.748025766131382,10.019110382135207,5.013027629792102,13.492295253195167C4.294162404387324,16.889245125261873,4.98974247539862,20.348468828339268,6.975814899503421,23.1965474739951C9.155371901761075,26.32208795267006,12.19533347697377,29.457619797588976,16,29.24789460003376" fill="#7ed0ec" strokewidth="0"></path></g><g id="SVGRepo_tracerCarrier" stroke-linecap="round" stroke-linejoin="round" stroke="#CCCCCC" stroke-width="1.012672"> <g> <g> <path d="M1.176,7.401h7.403V0H1.176V7.401z M2.466,1.29h4.822v4.822H2.466V1.29z"></path> <path d="M1.176,15.504h7.403V8.101H1.176V15.504z M2.466,9.392h4.822v4.821H2.466V9.392z"></path> <path d="M1.176,23.573h7.403V16.17H1.176V23.573z M2.466,17.46h4.822v4.822H2.466V17.46z"></path> <path d="M1.176,31.646h7.403v-7.403H1.176V31.646z M2.466,25.533h4.822v4.822H2.466V25.533z"></path> <rect x="10.563" y="1.488" width="19.423" height="1.45"></rect> <rect x="10.563" y="4.067" width="13.943" height="1.451"></rect> <rect x="10.563" y="9.146" width="19.423" height="1.45"></rect> <rect x="10.563" y="11.725" width="13.943" height="1.45"></rect> <rect x="11.046" y="17.445" width="19.425" height="1.451"></rect> <rect x="11.046" y="20.025" width="13.944" height="1.451"></rect> <rect x="11.046" y="25.346" width="19.425" height="1.45"></rect> <rect x="11.046" y="27.925" width="13.944" height="1.451"></rect> </g> </g> </g><g id="SVGRepo_iconCarrier"> <g> <g> <path d="M1.176,7.401h7.403V0H1.176V7.401z M2.466,1.29h4.822v4.822H2.466V1.29z"></path> <path d="M1.176,15.504h7.403V8.101H1.176V15.504z M2.466,9.392h4.822v4.821H2.466V9.392z"></path> <path d="M1.176,23.573h7.403V16.17H1.176V23.573z M2.466,17.46h4.822v4.822H2.466V17.46z"></path> <path d="M1.176,31.646h7.403v-7.403H1.176V31.646z M2.466,25.533h4.822v4.822H2.466V25.533z"></path> <rect x="10.563" y="1.488" width="19.423" height="1.45"></rect> <rect x="10.563" y="4.067" width="13.943" height="1.451"></rect> <rect x="10.563" y="9.146" width="19.423" height="1.45"></rect> <rect x="10.563" y="11.725" width="13.943" height="1.45"></rect> <rect x="11.046" y="17.445" width="19.425" height="1.451"></rect> <rect x="11.046" y="20.025" width="13.944" height="1.451"></rect> <rect x="11.046" y="25.346" width="19.425" height="1.45"></rect> <rect x="11.046" y="27.925" width="13.944" height="1.451"></rect> </g> </g> </g></svg>